<?xml version="1.0" standalone="no"?>
<!DOCTYPE svg PUBLIC "-//W3C//DTD SVG 20010904//EN"
 "http://www.w3.org/TR/2001/REC-SVG-20010904/DTD/svg10.dtd">
<svg version="1.0" xmlns="http://www.w3.org/2000/svg"
 width="922.000000pt" height="578.000000pt" viewBox="0 0 922.000000 578.000000"
 preserveAspectRatio="xMidYMid meet">

<g transform="translate(0.000000,578.000000) scale(0.100000,-0.100000)"
fill="#ffffff" stroke="none">
<path d="M4795 4117 c-34 -34 -46 -66 -75 -201 l-16 -78 -13 56 c-7 30 -17 58
-22 61 -5 4 -9 17 -9 30 0 30 -46 85 -72 85 -66 0 -126 -70 -113 -133 10 -45
51 -114 103 -169 24 -26 41 -51 38 -56 -3 -5 -25 -12 -48 -15 -78 -11 -148
-37 -178 -67 -25 -24 -30 -37 -30 -76 0 -77 50 -144 108 -144 29 0 116 45 157
81 29 25 37 29 31 14 -12 -29 -19 -120 -12 -150 14 -54 123 -86 162 -48 22 23
44 76 44 109 0 14 -7 53 -16 86 -8 33 -14 61 -12 63 2 2 30 -15 62 -36 77 -50
123 -53 160 -9 30 37 49 99 40 135 -13 53 -112 91 -205 79 -58 -8 -63 4 -23
51 82 94 124 179 124 248 0 43 -5 58 -22 74 -60 54 -115 58 -163 10z"/>
<path d="M1580 2755 l0 -845 379 0 c216 0 413 5 457 11 263 36 454 205 544
479 44 137 55 218 54 410 -1 155 -4 186 -27 274 -32 120 -69 201 -130 283 -83
111 -181 174 -332 213 -72 18 -111 20 -512 20 l-433 0 0 -845z m828 544 c101
-21 192 -110 222 -219 83 -290 27 -646 -122 -786 -88 -82 -111 -88 -360 -92
l-218 -4 0 554 c0 305 3 558 8 563 10 11 407 -2 470 -16z"/>
<path d="M5621 3190 c-71 -10 -176 -42 -231 -70 -86 -44 -180 -195 -180 -290
l0 -41 151 3 151 3 13 38 c29 85 88 117 220 117 107 0 165 -21 189 -69 20 -37
20 -54 1 -91 -18 -34 -77 -58 -233 -96 -194 -46 -226 -54 -282 -76 -102 -40
-165 -91 -215 -173 -34 -57 -35 -62 -35 -158 0 -91 3 -105 30 -161 69 -139
171 -208 360 -242 185 -33 416 -2 547 73 102 59 179 186 186 303 l2 45 -147 3
c-156 3 -178 -3 -178 -49 0 -34 -43 -88 -88 -110 -66 -33 -168 -45 -250 -30
-115 20 -161 63 -148 134 12 65 54 86 278 142 321 81 412 127 470 238 27 52
31 196 9 267 -38 118 -151 223 -287 266 -86 27 -233 38 -333 24z"/>
<path d="M3601 3179 c-56 -10 -176 -56 -206 -80 -96 -77 -137 -154 -162 -301
l-6 -38 145 0 c155 0 160 1 172 52 22 92 141 142 278 118 109 -20 144 -53 142
-135 -2 -80 -53 -109 -231 -130 -257 -32 -354 -64 -438 -150 -51 -51 -64 -71
-85 -135 -67 -202 3 -384 180 -469 50 -24 66 -26 181 -26 l125 0 80 39 c44 22
97 58 120 82 23 23 50 44 60 46 17 3 20 -6 24 -67 l5 -70 85 -3 c47 -2 113 0
148 3 l63 7 -3 496 c-4 562 -4 558 -83 637 -103 103 -375 160 -594 124z m371
-676 c4 -20 -9 -134 -24 -214 -13 -70 -57 -120 -137 -157 -147 -67 -287 -21
-305 102 -13 87 25 157 104 189 19 8 82 25 140 37 57 11 122 30 145 40 51 23
73 24 77 3z"/>
<path d="M4592 2538 l3 -623 154 0 155 0 5 25 c3 14 5 294 3 623 l-2 597 -160
0 -160 0 2 -622z"/>
<path d="M6433 3138 c3 -13 23 -72 45 -133 66 -181 131 -363 172 -480 88 -251
180 -514 204 -580 33 -88 32 -117 -2 -184 -36 -72 -72 -91 -174 -91 l-78 0 0
-131 0 -131 153 4 c132 3 159 6 203 26 122 55 148 114 459 1017 51 149 127
363 169 477 42 113 76 211 76 217 0 8 -51 11 -171 9 l-172 -3 -73 -260 c-40
-143 -94 -339 -119 -435 -65 -249 -61 -243 -95 -135 -16 50 -63 207 -105 350
-100 341 -112 381 -127 438 l-12 47 -179 0 -179 0 5 -22z"/>
</g>
</svg>
